<svg width="113" height="19" viewBox="0 0 113 19" fill="none" xmlns="http://www.w3.org/2000/svg">
<g clip-path="url(#clip0_3_262)">
<path d="M9.43776 0.990585C9.76784 0.206588 10.892 0.206589 11.2221 0.990587L13.1702 5.61788C13.3095 5.94839 13.6241 6.17422 13.9853 6.20282L19.0419 6.60332C19.8986 6.67117 20.246 7.72743 19.5933 8.27982L15.7407 11.5401C15.4655 11.773 15.3453 12.1384 15.4293 12.4866L16.6064 17.3614C16.8058 18.1873 15.8963 18.8402 15.1628 18.3976L10.8336 15.7852C10.5244 15.5986 10.1355 15.5986 9.82627 15.7852L5.49704 18.3976C4.76354 18.8402 3.85404 18.1873 4.05346 17.3614L5.23051 12.4866C5.31458 12.1384 5.19441 11.773 4.91923 11.5401L1.06656 8.27982C0.413812 7.72743 0.761213 6.67117 1.61796 6.60332L6.67465 6.20282C7.03584 6.17422 7.35046 5.94839 7.48961 5.61788L9.43776 0.990585Z" fill="#42A8DF"/>
<path d="M32.4837 0.990585C32.8137 0.206588 33.9379 0.206589 34.268 0.990587L36.2161 5.61788C36.3554 5.94839 36.67 6.17422 37.0312 6.20282L42.0878 6.60332C42.9445 6.67117 43.2919 7.72743 42.6392 8.27982L38.7866 11.5401C38.5114 11.773 38.3912 12.1384 38.4752 12.4866L39.6523 17.3614C39.8517 18.1873 38.9422 18.8402 38.2087 18.3976L33.8795 15.7852C33.5703 15.5986 33.1814 15.5986 32.8722 15.7852L28.5429 18.3976C27.8094 18.8402 26.8999 18.1873 27.0994 17.3614L28.2764 12.4866C28.3605 12.1384 28.2403 11.773 27.9651 11.5401L24.1125 8.27982C23.4597 7.72743 23.8071 6.67117 24.6639 6.60332L29.7205 6.20282C30.0817 6.17422 30.3964 5.94839 30.5355 5.61788L32.4837 0.990585Z" fill="#42A8DF"/>
<path d="M55.5296 0.990585C55.8596 0.206588 56.9838 0.206589 57.3139 0.990587L59.262 5.61788C59.4013 5.94839 59.7159 6.17422 60.0771 6.20282L65.1337 6.60332C65.9904 6.67117 66.3378 7.72743 65.6851 8.27982L61.8325 11.5401C61.5573 11.773 61.4371 12.1384 61.5211 12.4866L62.6982 17.3614C62.8976 18.1873 61.9881 18.8402 61.2546 18.3976L56.9254 15.7852C56.6162 15.5986 56.2273 15.5986 55.9181 15.7852L51.5888 18.3976C50.8553 18.8402 49.9458 18.1873 50.1453 17.3614L51.3223 12.4866C51.4064 12.1384 51.2862 11.773 51.011 11.5401L47.1584 8.27982C46.5056 7.72743 46.853 6.67117 47.7098 6.60332L52.7664 6.20282C53.1276 6.17422 53.4423 5.94839 53.5814 5.61788L55.5296 0.990585Z" fill="#42A8DF"/>
<path d="M78.5745 0.990829C78.9046 0.206832 80.0288 0.206833 80.3588 0.990831L82.3069 5.61812C82.4462 5.94864 82.7608 6.17446 83.122 6.20307L88.1786 6.60356C89.0353 6.67142 89.3827 7.72767 88.73 8.28007L84.8774 11.5403C84.6022 11.7732 84.482 12.1387 84.5661 12.4868L85.7431 17.3616C85.9425 18.1875 85.0331 18.8404 84.2995 18.3978L79.9703 15.7855C79.6611 15.5988 79.2722 15.5988 78.963 15.7855L74.6338 18.3978C73.9003 18.8404 72.9908 18.1875 73.1902 17.3616L74.3672 12.4868C74.4513 12.1387 74.3311 11.7732 74.056 11.5403L70.2033 8.28007C69.5505 7.72767 69.8979 6.67142 70.7547 6.60356L75.8114 6.20307C76.1726 6.17446 76.4872 5.94864 76.6263 5.61812L78.5745 0.990829Z" fill="#42A8DF"/>
<path d="M101.62 0.990585C101.95 0.206588 103.075 0.206589 103.405 0.990587L105.353 5.61788C105.492 5.94839 105.807 6.17422 106.168 6.20282L111.224 6.60332C112.081 6.67117 112.429 7.72743 111.776 8.27982L107.923 11.5401C107.648 11.773 107.528 12.1384 107.612 12.4866L108.789 17.3614C108.988 18.1873 108.079 18.8402 107.345 18.3976L103.016 15.7852C102.707 15.5986 102.318 15.5986 102.009 15.7852L97.6797 18.3976C96.9462 18.8402 96.0367 18.1873 96.2361 17.3614L97.4131 12.4866C97.4972 12.1384 97.377 11.773 97.1018 11.5401L93.2492 8.27982C92.5964 7.72743 92.9438 6.67117 93.8006 6.60332L98.8573 6.20282C99.2185 6.17422 99.5331 5.94839 99.6722 5.61788L101.62 0.990585Z" fill="#42A8DF"/>
</g>
<defs>
<clipPath id="clip0_3_262">
<rect width="111.388" height="18.1379" fill="white" transform="translate(0.727539 0.402588)"/>
</clipPath>
</defs>
</svg>
