<svg width="103" height="18" viewBox="0 0 103 18" fill="none" xmlns="http://www.w3.org/2000/svg">
<path d="M33.7784 8.918C34.4411 9.07667 34.9404 9.36133 35.2764 9.772C35.6218 10.1733 35.7944 10.6913 35.7944 11.326C35.7944 12.1753 35.4818 12.8333 34.8564 13.3C34.2404 13.7667 33.3398 14 32.1544 14H27.6744V4.2H31.8884C32.9618 4.2 33.7971 4.41933 34.3944 4.858C35.0011 5.28733 35.3044 5.908 35.3044 6.72C35.3044 7.252 35.1691 7.70467 34.8984 8.078C34.6371 8.45133 34.2638 8.73133 33.7784 8.918ZM29.0604 8.512H31.7904C32.4718 8.512 32.9898 8.37667 33.3444 8.106C33.7084 7.83533 33.8904 7.43867 33.8904 6.916C33.8904 6.39333 33.7084 5.99667 33.3444 5.726C32.9804 5.446 32.4624 5.306 31.7904 5.306H29.0604V8.512ZM32.1264 12.894C33.6291 12.894 34.3804 12.334 34.3804 11.214C34.3804 10.654 34.1891 10.2433 33.8064 9.982C33.4331 9.71133 32.8731 9.576 32.1264 9.576H29.0604V12.894H32.1264ZM41.1434 14.084C40.3874 14.084 39.7108 13.9207 39.1134 13.594C38.5254 13.2673 38.0634 12.8193 37.7274 12.25C37.3914 11.6713 37.2234 11.018 37.2234 10.29C37.2234 9.562 37.3914 8.91333 37.7274 8.344C38.0634 7.76533 38.5254 7.31733 39.1134 7C39.7108 6.67333 40.3874 6.51 41.1434 6.51C41.8154 6.51 42.4128 6.64533 42.9354 6.916C43.4674 7.18667 43.8781 7.57867 44.1674 8.092L43.1454 8.75C42.9121 8.39533 42.6228 8.12933 42.2774 7.952C41.9321 7.77467 41.5494 7.686 41.1294 7.686C40.6441 7.686 40.2054 7.79333 39.8134 8.008C39.4308 8.22267 39.1274 8.53067 38.9034 8.932C38.6888 9.324 38.5814 9.77667 38.5814 10.29C38.5814 10.8127 38.6888 11.2747 38.9034 11.676C39.1274 12.068 39.4308 12.3713 39.8134 12.586C40.2054 12.8007 40.6441 12.908 41.1294 12.908C41.5494 12.908 41.9321 12.8193 42.2774 12.642C42.6228 12.4647 42.9121 12.1987 43.1454 11.844L44.1674 12.488C43.8781 13.0013 43.4674 13.398 42.9354 13.678C42.4128 13.9487 41.8154 14.084 41.1434 14.084ZM52.5041 10.332C52.5041 10.4347 52.4948 10.57 52.4761 10.738H46.4561C46.5401 11.3913 46.8248 11.9187 47.3101 12.32C47.8048 12.712 48.4161 12.908 49.1441 12.908C50.0308 12.908 50.7448 12.6093 51.2861 12.012L52.0281 12.88C51.6921 13.272 51.2721 13.5707 50.7681 13.776C50.2734 13.9813 49.7181 14.084 49.1021 14.084C48.3181 14.084 47.6228 13.9253 47.0161 13.608C46.4094 13.2813 45.9381 12.8287 45.6021 12.25C45.2754 11.6713 45.1121 11.018 45.1121 10.29C45.1121 9.57133 45.2708 8.92267 45.5881 8.344C45.9148 7.76533 46.3581 7.31733 46.9181 7C47.4874 6.67333 48.1268 6.51 48.8361 6.51C49.5454 6.51 50.1754 6.67333 50.7261 7C51.2861 7.31733 51.7201 7.76533 52.0281 8.344C52.3454 8.92267 52.5041 9.58533 52.5041 10.332ZM48.8361 7.644C48.1921 7.644 47.6508 7.84 47.2121 8.232C46.7828 8.624 46.5308 9.13733 46.4561 9.772H51.2161C51.1414 9.14667 50.8848 8.638 50.4461 8.246C50.0168 7.84467 49.4801 7.644 48.8361 7.644ZM61.2329 10.864H59.6929V14H58.3489V6.58H59.6929V9.716H61.2609L63.6689 6.58H65.1109L62.2969 10.15L65.3069 14H63.7249L61.2329 10.864ZM72.9142 6.58L69.3162 14.742C68.9989 15.498 68.6256 16.03 68.1962 16.338C67.7762 16.646 67.2676 16.8 66.6702 16.8C66.3062 16.8 65.9516 16.7393 65.6062 16.618C65.2702 16.506 64.9902 16.338 64.7662 16.114L65.3402 15.106C65.7229 15.47 66.1662 15.652 66.6702 15.652C66.9969 15.652 67.2676 15.5633 67.4822 15.386C67.7062 15.218 67.9069 14.924 68.0842 14.504L68.3222 13.986L65.0462 6.58H66.4462L69.0362 12.516L71.5982 6.58H72.9142ZM78.2243 6.51C78.9429 6.51 79.5869 6.66867 80.1563 6.986C80.7256 7.30333 81.1689 7.74667 81.4863 8.316C81.8129 8.88533 81.9763 9.54333 81.9763 10.29C81.9763 11.0367 81.8129 11.6993 81.4863 12.278C81.1689 12.8473 80.7256 13.2907 80.1563 13.608C79.5869 13.9253 78.9429 14.084 78.2243 14.084C77.6923 14.084 77.2023 13.9813 76.7543 13.776C76.3156 13.5707 75.9423 13.272 75.6343 12.88V16.716H74.2903V6.58H75.5783V7.756C75.8769 7.34533 76.2549 7.03733 76.7123 6.832C77.1696 6.61733 77.6736 6.51 78.2243 6.51ZM78.1123 12.908C78.5883 12.908 79.0129 12.8007 79.3863 12.586C79.7689 12.362 80.0676 12.054 80.2823 11.662C80.5063 11.2607 80.6183 10.8033 80.6183 10.29C80.6183 9.77667 80.5063 9.324 80.2823 8.932C80.0676 8.53067 79.7689 8.22267 79.3863 8.008C79.0129 7.79333 78.5883 7.686 78.1123 7.686C77.6456 7.686 77.2209 7.798 76.8383 8.022C76.4649 8.23667 76.1663 8.54 75.9423 8.932C75.7276 9.324 75.6203 9.77667 75.6203 10.29C75.6203 10.8033 75.7276 11.2607 75.9423 11.662C76.1569 12.054 76.4556 12.362 76.8383 12.586C77.2209 12.8007 77.6456 12.908 78.1123 12.908ZM87.163 14.084C86.407 14.084 85.7303 13.9207 85.133 13.594C84.545 13.2673 84.083 12.8193 83.747 12.25C83.411 11.6713 83.243 11.018 83.243 10.29C83.243 9.562 83.411 8.91333 83.747 8.344C84.083 7.76533 84.545 7.31733 85.133 7C85.7303 6.67333 86.407 6.51 87.163 6.51C87.835 6.51 88.4323 6.64533 88.955 6.916C89.487 7.18667 89.8976 7.57867 90.187 8.092L89.165 8.75C88.9316 8.39533 88.6423 8.12933 88.297 7.952C87.9516 7.77467 87.569 7.686 87.149 7.686C86.6636 7.686 86.225 7.79333 85.833 8.008C85.4503 8.22267 85.147 8.53067 84.923 8.932C84.7083 9.324 84.601 9.77667 84.601 10.29C84.601 10.8127 84.7083 11.2747 84.923 11.676C85.147 12.068 85.4503 12.3713 85.833 12.586C86.225 12.8007 86.6636 12.908 87.149 12.908C87.569 12.908 87.9516 12.8193 88.297 12.642C88.6423 12.4647 88.9316 12.1987 89.165 11.844L90.187 12.488C89.8976 13.0013 89.487 13.398 88.955 13.678C88.4323 13.9487 87.835 14.084 87.163 14.084ZM95.273 9.1C96.2063 9.10933 96.9203 9.324 97.415 9.744C97.9097 10.164 98.157 10.7567 98.157 11.522C98.157 12.3247 97.8863 12.9453 97.345 13.384C96.813 13.8133 96.0477 14.0233 95.049 14.014L91.927 14V6.58H93.271V9.086L95.273 9.1ZM99.263 6.58H100.607V14H99.263V6.58ZM94.951 12.992C95.5577 13.0013 96.015 12.88 96.323 12.628C96.6403 12.376 96.799 12.0027 96.799 11.508C96.799 11.0227 96.645 10.668 96.337 10.444C96.029 10.22 95.567 10.1033 94.951 10.094L93.271 10.066V12.978L94.951 12.992Z" fill="black"/>
<rect x="1" y="2.51392" width="18" height="4.99717" rx="1" stroke="#00093C" stroke-width="2"/>
<rect x="1" y="11.4858" width="18" height="5" rx="1" stroke="#00093C" stroke-width="2"/>
</svg>
