<svg width="72" height="19" viewBox="0 0 72 19" fill="none" xmlns="http://www.w3.org/2000/svg">
<path d="M33.63 10.918C34.2927 11.0767 34.792 11.3613 35.128 11.772C35.4733 12.1733 35.646 12.6913 35.646 13.326C35.646 14.1753 35.3333 14.8333 34.708 15.3C34.092 15.7667 33.1913 16 32.006 16H27.526V6.2H31.74C32.8133 6.2 33.6487 6.41933 34.246 6.858C34.8527 7.28733 35.156 7.908 35.156 8.72C35.156 9.252 35.0207 9.70467 34.75 10.078C34.4887 10.4513 34.1153 10.7313 33.63 10.918ZM28.912 10.512H31.642C32.3233 10.512 32.8413 10.3767 33.196 10.106C33.56 9.83533 33.742 9.43867 33.742 8.916C33.742 8.39333 33.56 7.99667 33.196 7.726C32.832 7.446 32.314 7.306 31.642 7.306H28.912V10.512ZM31.978 14.894C33.4807 14.894 34.232 14.334 34.232 13.214C34.232 12.654 34.0407 12.2433 33.658 11.982C33.2847 11.7113 32.7247 11.576 31.978 11.576H28.912V14.894H31.978ZM40.939 16.084C40.2017 16.084 39.539 15.9207 38.951 15.594C38.363 15.2673 37.901 14.8193 37.565 14.25C37.2383 13.6713 37.075 13.018 37.075 12.29C37.075 11.562 37.2383 10.9133 37.565 10.344C37.901 9.76533 38.363 9.31733 38.951 9C39.539 8.67333 40.2017 8.51 40.939 8.51C41.6763 8.51 42.3343 8.67333 42.913 9C43.501 9.31733 43.9583 9.76533 44.285 10.344C44.621 10.9133 44.789 11.562 44.789 12.29C44.789 13.018 44.621 13.6713 44.285 14.25C43.9583 14.8193 43.501 15.2673 42.913 15.594C42.3343 15.9207 41.6763 16.084 40.939 16.084ZM40.939 14.908C41.415 14.908 41.8397 14.8007 42.213 14.586C42.5957 14.362 42.8943 14.054 43.109 13.662C43.3237 13.2607 43.431 12.8033 43.431 12.29C43.431 11.7767 43.3237 11.324 43.109 10.932C42.8943 10.5307 42.5957 10.2227 42.213 10.008C41.8397 9.79333 41.415 9.686 40.939 9.686C40.463 9.686 40.0337 9.79333 39.651 10.008C39.2777 10.2227 38.979 10.5307 38.755 10.932C38.5403 11.324 38.433 11.7767 38.433 12.29C38.433 12.8033 38.5403 13.2607 38.755 13.662C38.979 14.054 39.2777 14.362 39.651 14.586C40.0337 14.8007 40.463 14.908 40.939 14.908ZM46.7297 8.58H48.0737V13.984L52.6237 8.58H53.8417V16H52.4977V10.596L47.9617 16H46.7297V8.58ZM50.2017 7.614C49.5111 7.614 48.9744 7.45067 48.5917 7.124C48.2091 6.788 48.0131 6.30733 48.0037 5.682H48.9137C48.9231 6.02733 49.0397 6.30733 49.2637 6.522C49.4971 6.72733 49.8051 6.83 50.1877 6.83C50.5704 6.83 50.8784 6.72733 51.1117 6.522C51.3451 6.30733 51.4664 6.02733 51.4757 5.682H52.4137C52.4044 6.30733 52.2037 6.788 51.8117 7.124C51.4197 7.45067 50.8831 7.614 50.2017 7.614ZM61.9804 9.756H59.2644V16H57.9204V9.756H55.2044V8.58H61.9804V9.756ZM63.3547 8.58H64.6987V13.984L69.2487 8.58H70.4667V16H69.1227V10.596L64.5867 16H63.3547V8.58Z" fill="black"/>
<rect x="5.18024" y="1" width="6.63833" height="8.41108" rx="3.31917" stroke="#00093C" stroke-width="2"/>
<path d="M1 15.4111C1 13.7543 2.34315 12.4111 4 12.4111H13.2795C14.9364 12.4111 16.2795 13.7543 16.2795 15.4111V16.3229C16.2795 16.8752 15.8318 17.3229 15.2795 17.3229H2C1.44772 17.3229 1 16.8752 1 16.3229V15.4111Z" stroke="#00093C" stroke-width="2"/>
</svg>
